<?xml version="1.0" encoding="utf-8"?>
<!-- Generator: Adobe Illustrator 16.0.0, SVG Export Plug-In . SVG Version: 6.00 Build 0)  -->
<!DOCTYPE svg PUBLIC "-//W3C//DTD SVG 1.1//EN" "http://www.w3.org/Graphics/SVG/1.1/DTD/svg11.dtd">
<svg version="1.1" id="Layer_1" xmlns="http://www.w3.org/2000/svg" xmlns:xlink="http://www.w3.org/1999/xlink" x="0px" y="0px"
	 width="280px" height="80.966px" viewBox="0 0 280 80.966" enable-background="new 0 0 280 80.966" xml:space="preserve">
<path fill-rule="evenodd" clip-rule="evenodd" fill="#006699" d="M21.629,26.34c1.416-3.53,1.578-6.89,0.07-10.022
	c-2.357,3.34-3.568,6.821-2.264,10.61c-3.614-0.569-6.594,0.512-9.244,2.449c2.565,2.57,5.6,2.547,9.063,0.152
	c-0.609-0.596-1.504-0.678-2.665-0.289c1.73-2.281,9.036,2.753,11.389,3.37c0.666,0.175,0.226-0.465,0.78-0.519
	c-5.638-2.892-8.507-5.159-8.031-8.123C20.89,24.849,21.158,25.662,21.629,26.34z"/>
<path fill-rule="evenodd" clip-rule="evenodd" fill="#F16421" d="M65.954,33.711c2.604,0,4.729-2.124,4.729-4.729
	c0-2.604-2.124-4.729-4.729-4.729c-2.605,0-4.729,2.125-4.729,4.729C61.225,31.587,63.349,33.711,65.954,33.711z"/>
<circle fill-rule="evenodd" clip-rule="evenodd" fill="#006699" cx="15.149" cy="22.721" r="2.467"/>
<circle fill-rule="evenodd" clip-rule="evenodd" fill="#006699" cx="51.697" cy="3.28" r="3.28"/>
<path fill-rule="evenodd" clip-rule="evenodd" fill="#F16421" d="M30.416,37.295c-6.404,3.523-10.852,4.39-12.016,0.979l2.62,1.708
	c0.243-4.327-1.363-6.874-5.068-7.402c1.101,2.999-2.239,8.218,3.303,8.997c-6.529,0.645-5.884,7.44-10.705,9.623
	c4.985,1.122,9.424,0.449,11.673-7.402l-3.189,2.335c1.611-2.693,6.797-4.929,13.67-6.948c0.525,2.686,1.577,5.694,3.177,9.054
	c3.905,8.191,12.006,16.139,11.88,24.563C30.507,73.3,15.254,76.152,0,80.966c32.744-4.929,65.489-6.054,98.233,0
	c-13.72-4.873-27.439-7.476-41.158-8.096c0.768-7.018-2.744-13.995-10.745-21.178c-1.412-1.44-2.751-2.873-3.982-4.292
	c-6.633-12.396,4.927-16.082,11.816,0.084c-4.179-15.414-11.263-17.493-17.443-8.07c-8.341-16.605,19.072-21.769,20.212-8.819
	c-1.21-1.586-0.984-4.483-3.631-4.758c1.593,4.005-1.874,9.51,4.465,12.266c-1.649-4.922,6.755-12.842-4.199-14.767
	c18.306,1.62,12.632-6.563,21.571-8.251c-11.298-5.604-13.229,4.03-19.842,6.046l8.984-1.953c-5.829,5.115-19.036,1.788-23.888,3.58
	C33.114,25.447,29.643,30.086,30.416,37.295z"/>
<path fill-rule="evenodd" clip-rule="evenodd" fill="#F16421" d="M11.691,43.766c1.657,0,3.008-1.351,3.008-3.008
	c0-1.657-1.351-3.008-3.008-3.008c-1.657,0-3.008,1.351-3.008,3.008C8.683,42.415,10.034,43.766,11.691,43.766z"/>
<path fill-rule="evenodd" clip-rule="evenodd" fill="#006699" d="M33.173,50.475c1.415-1.415,0.218-2.634-0.457-2.09
	c-2.295,3.17-4.478,4.431-6.599,4.639c1.066-0.937,3.179-1.22,3.201-2.809c-3.551-1.253-6.836-0.99-9.865,0.719
	c3.593,1.154,4.116,7.273,10.779,3.462c-6.837,8.079,2.331,12.173-0.718,18.358c5.161-2.809,9.016-11.302,4.116-18.62l-2.156,7.187
	C30.921,57.625,31.287,53.996,33.173,50.475z"/>
<path fill-rule="evenodd" clip-rule="evenodd" fill="#006699" d="M22.994,62.974c1.657,0,3.008-1.351,3.008-3.008
	c0-1.657-1.351-3.008-3.008-3.008s-3.008,1.352-3.008,3.008C19.985,61.623,21.337,62.974,22.994,62.974z"/>
<path fill-rule="evenodd" clip-rule="evenodd" fill="#006699" d="M49.979,18.046c-0.005,1.675-1.437,1.685-1.512,0.962
	c0.527-3.234-0.012-5.274-1.142-6.656c0.075,1.187,1.153,2.608,0.222,3.559c-2.841-1.37-4.624-3.475-5.397-6.282
	c2.806,1.452,6.748-1.85,8.419,4.357c0.761-8.83,8.604-5.803,10.477-11.265c1.379,4.724-1.388,12.026-8.626,13.437l2.995-5.523
	C52.894,12.488,50.955,14.848,49.979,18.046z"/>
<circle fill-rule="evenodd" clip-rule="evenodd" fill="#F16421" cx="29.492" cy="10.533" r="2.676"/>
<path fill-rule="evenodd" clip-rule="evenodd" fill="#F16421" d="M35.803,20.892c0.575,1.241,1.639,0.759,1.448,0.199
	c-1.494-2.217-1.79-3.914-1.424-5.323c0.35,0.904,0.035,2.326,1.049,2.714c1.639-1.984,2.242-4.153,1.858-6.498
	c-1.585,2.033-5.633,0.931-4.755,6.101c-3.575-6.285-8.357-1.366-11.608-4.776c0.589,3.972,5.131,8.44,10.977,7.017l-4.103-3.072
	C31.746,17.767,33.987,18.854,35.803,20.892z"/>
<path fill="#F16421" d="M102.239,37.447h4.291c-0.63,2.401-1.831,4.232-3.603,5.491c-1.771,1.317-4.003,1.977-6.691,1.977
	c-3.258,0-5.806-1.062-7.636-3.178c-1.83-2.057-2.746-5-2.746-8.836c0-3.661,0.887-6.523,2.658-8.581
	c1.831-2.116,4.378-3.177,7.636-3.177c3.434,0,6.091,1.033,7.98,3.089c1.83,2.116,2.746,5.06,2.746,8.837c0,0.228,0,0.432,0,0.6
	c0,0.176,0,0.286,0,0.344c0,0.286-0.03,0.483-0.088,0.601h-14.84c0.06,1.771,0.483,3.089,1.289,3.946
	c0.74,0.915,1.861,1.376,3.346,1.376c0.974,0,1.801-0.197,2.49-0.6c0.168-0.059,0.329-0.161,0.468-0.3
	c0.146-0.146,0.3-0.3,0.476-0.476c0.051-0.168,0.271-0.396,0.637-0.681C101.024,37.594,101.558,37.447,102.239,37.447
	L102.239,37.447z M91.946,30.756h8.749c-0.109-1.545-0.511-2.687-1.2-3.434c-0.74-0.797-1.801-1.201-3.17-1.201
	c-1.259,0-2.292,0.403-3.09,1.201C92.429,28.127,92.005,29.27,91.946,30.756z"/>
<path fill="#006699" d="M110.383,44.483V18.062c0-0.857,0.301-1.589,0.901-2.189c0.601-0.601,1.333-0.9,2.189-0.9h3.001v24.02
	h14.416v5.492H110.383L110.383,44.483z M151.16,37.447h4.291c-0.629,2.401-1.831,4.232-3.603,5.491
	c-1.771,1.317-4.004,1.977-6.691,1.977c-3.258,0-5.805-1.062-7.636-3.178c-1.83-2.057-2.746-5-2.746-8.836
	c0-3.661,0.887-6.523,2.658-8.581c1.83-2.116,4.378-3.177,7.636-3.177c3.434,0,6.091,1.033,7.979,3.089
	c1.831,2.116,2.746,5.06,2.746,8.837c0,0.228,0,0.432,0,0.6c0,0.176,0,0.286,0,0.344c0,0.286-0.028,0.483-0.088,0.601h-14.84
	c0.06,1.771,0.484,3.089,1.289,3.946c0.74,0.915,1.86,1.376,3.346,1.376c0.974,0,1.801-0.197,2.489-0.6
	c0.168-0.059,0.33-0.161,0.469-0.3c0.146-0.146,0.3-0.3,0.475-0.476c0.052-0.168,0.271-0.396,0.638-0.681
	C149.944,37.594,150.479,37.447,151.16,37.447L151.16,37.447z M140.866,30.756h8.75c-0.11-1.545-0.512-2.687-1.201-3.434
	c-0.74-0.797-1.801-1.201-3.17-1.201c-1.259,0-2.292,0.403-3.09,1.201C141.35,28.127,140.925,29.27,140.866,30.756L140.866,30.756z
	 M173.407,32.988c-0.798,0.404-1.918,0.769-3.346,1.113c-1.317,0.286-1.968,0.432-1.968,0.432c-1.033,0.286-1.78,0.659-2.234,1.113
	c-0.401,0.63-0.6,1.259-0.6,1.889c0,0.857,0.256,1.545,0.769,2.058c0.519,0.461,1.259,0.688,2.233,0.688
	c1.603,0,2.863-0.461,3.777-1.376c0.915-0.915,1.369-2.167,1.369-3.77V32.988L173.407,32.988z M174.775,43.538
	c-1.2,0.629-2.473,1.018-3.814,1.165c-1.346,0.139-2.533,0.212-3.565,0.212c-2.057,0-3.858-0.557-5.403-1.676
	c-1.545-1.113-2.313-2.958-2.313-5.535c0-2.402,0.704-4.114,2.102-5.147c1.398-1.024,3.192-1.712,5.359-2.056
	c0.285,0,0.629-0.043,1.032-0.132c0.402-0.081,0.856-0.154,1.368-0.212c2.519-0.344,3.777-1.083,3.777-2.232
	c0-0.857-0.446-1.414-1.332-1.67c-0.886-0.257-1.698-0.388-2.446-0.388c-0.797,0-1.515,0.118-2.145,0.344
	c-0.629,0.228-1.083,0.652-1.369,1.282h-5.747c0.227-1.772,1.025-3.229,2.4-4.378c1.545-1.311,3.749-1.97,6.605-1.97
	c3.206,0,5.607,0.542,7.204,1.633c1.662,1.143,2.488,2.746,2.488,4.802v7.812c0,2.284-0.417,4.078-1.244,5.359
	C176.906,42.038,175.918,42.968,174.775,43.538L174.775,43.538z M183.295,44.483v-11.07c0-2.226,0.33-4.1,0.988-5.615
	c0.659-1.516,1.56-2.73,2.701-3.646c1.084-0.857,2.358-1.487,3.815-1.889c1.457-0.403,2.958-0.601,4.502-0.601
	c0.117,0,0.255,0,0.431,0c0.168,0,0.315,0,0.432,0v6.091h-1.976c-1.661,0-2.893,0.403-3.689,1.201
	c-0.799,0.798-1.202,2.058-1.202,3.778v11.751H183.295L183.295,44.483z M220.126,44.483h-3.001c-0.865,0-1.56-0.271-2.109-0.813
	c-0.542-0.55-0.813-1.244-0.813-2.102l0,0V29.899c0-1.37-0.417-2.372-1.244-3.001c-0.828-0.63-1.757-0.945-2.789-0.945
	c-1.033,0-1.948,0.315-2.747,0.945c-0.798,0.629-1.201,1.632-1.201,3.001v14.584h-6.002V31.1c0-3.887,1.018-6.487,3.044-7.804
	c2.028-1.317,4.277-2.028,6.736-2.145c2.519,0,4.832,0.658,6.948,1.969c2.116,1.318,3.178,3.976,3.178,7.98V44.483L220.126,44.483z
	 M225.037,21.663h3.089c0.798,0,1.487,0.286,2.058,0.857c0.571,0.572,0.857,1.259,0.857,2.057v19.907h-6.004V21.663L225.037,21.663z
	 M225.037,14.972h3.089c0.798,0,1.487,0.285,2.058,0.857c0.571,0.57,0.857,1.259,0.857,2.064v1.801h-6.004V14.972L225.037,14.972z
	 M254.664,44.483h-3.001c-0.865,0-1.561-0.271-2.11-0.813c-0.542-0.55-0.812-1.244-0.812-2.102l0,0V29.899
	c0-1.37-0.417-2.372-1.244-3.001c-0.828-0.63-1.758-0.945-2.79-0.945c-1.033,0-1.948,0.315-2.746,0.945
	c-0.798,0.629-1.2,1.632-1.2,3.001v14.584h-6.004V31.1c0-3.887,1.018-6.487,3.045-7.804c2.028-1.317,4.275-2.028,6.736-2.145
	c2.519,0,4.832,0.658,6.948,1.969c2.115,1.318,3.178,3.976,3.178,7.98V44.483L254.664,44.483z M274.165,43.114v-1.457
	c-1.032,1.596-2.416,2.599-4.158,3.001c-1.75,0.396-3.479,0.256-5.191-0.432c-1.72-0.689-3.191-1.955-4.421-3.814
	c-1.23-1.86-1.846-4.306-1.846-7.337c0-3.55,0.814-6.42,2.447-8.624c1.631-2.204,4.246-3.302,7.848-3.302
	c2.745,0,5.293,0.746,7.635,2.232c2.35,1.487,3.522,4.232,3.522,8.236v12.095c0,4.004-1.172,6.735-3.522,8.192
	c-2.342,1.457-4.89,2.189-7.635,2.189c-5.257,0-8.521-2.46-9.774-7.38h6.26c0.454,0.798,1.156,1.413,2.101,1.846
	c0.944,0.431,1.888,0.541,2.833,0.343c0.945-0.204,1.801-0.761,2.57-1.676C273.608,46.313,274.047,44.944,274.165,43.114
	L274.165,43.114z M264.384,33.246c0,3.945,1.142,6.134,3.434,6.56c2.284,0.432,3.975-0.096,5.059-1.582
	c0.512-0.63,0.886-1.618,1.12-2.965c0.228-1.34,0.242-2.672,0.038-3.989c-0.198-1.311-0.667-2.482-1.414-3.515
	c-0.747-1.032-1.83-1.545-3.258-1.545c-1.947,0-3.265,0.718-3.946,2.146C264.728,29.782,264.384,31.415,264.384,33.246z"/>
<g>
	<path fill="#F16421" d="M111.651,48.475h4.346v20.789h-4.346V48.475z"/>
	<path fill="#F16421" d="M120.92,46.925l13.024,13.398V48.475h4.332V70.8l-13.01-13.952v12.415h-4.346V46.925z"/>
	<path fill="#F16421" d="M143.2,48.475h4.873c1.337,0,2.542,0.037,3.611,0.111c0.823,0.055,1.553,0.147,2.194,0.277
		c0.641,0.129,1.294,0.351,1.959,0.665c1.375,0.646,2.474,1.571,3.301,2.775c0.825,1.204,1.381,2.54,1.667,4.007
		c0.148,0.803,0.223,1.643,0.223,2.519c0,0.415-0.014,0.835-0.042,1.26c-0.112,1.338-0.406,2.561-0.886,3.668
		c-0.343,0.747-0.73,1.397-1.164,1.951c-0.848,1.089-1.873,1.929-3.072,2.519c-0.507,0.24-1.062,0.438-1.662,0.595
		c-0.073,0.046-0.396,0.113-0.969,0.201s-0.986,0.132-1.245,0.132c-0.934,0.074-1.953,0.11-3.06,0.11h-5.73V48.475z M147.532,65.236
		h2.035c0.747,0,1.403-0.027,1.965-0.083c0.499-0.036,0.927-0.102,1.289-0.194c0.673-0.184,1.241-0.475,1.701-0.872v-0.014
		c0.768-0.655,1.296-1.439,1.592-2.353c0.296-0.914,0.444-1.869,0.444-2.865s-0.148-1.949-0.444-2.858
		c-0.296-0.908-0.825-1.695-1.592-2.359c-0.452-0.378-0.937-0.642-1.46-0.79c-0.521-0.147-1.085-0.244-1.695-0.291
		c-0.554-0.046-1.179-0.071-1.875-0.076c-0.697-0.004-1.35-0.007-1.958-0.007V65.236z"/>
	<path fill="#F16421" d="M170.241,48.475v12.499c0,1.513,0.33,2.686,0.99,3.516c0.66,0.831,1.774,1.246,3.343,1.246
		c1.559,0,2.667-0.417,3.322-1.252c0.655-0.835,0.982-2.005,0.982-3.509V48.475h4.346v12.803c0,5.666-2.884,8.499-8.65,8.499
		c-5.75,0-8.623-2.833-8.623-8.499V48.475H170.241z"/>
	<path fill="#F16421" d="M190.653,62.772c0.249,0.904,0.621,1.62,1.114,2.146c0.493,0.525,1.267,0.789,2.318,0.789
		c0.72,0,1.322-0.193,1.806-0.581s0.727-0.978,0.727-1.772c0-0.802-0.517-1.469-1.551-2c-1.033-0.53-1.882-0.976-2.546-1.335
		c-1.255-0.655-2.367-1.454-3.335-2.395c-0.923-0.886-1.384-2.067-1.384-3.543v-0.249c0.055-1.633,0.71-3.018,1.965-4.152
		c1.217-1.098,2.639-1.647,4.263-1.647h0.166c1.356,0.027,2.499,0.284,3.426,0.769s1.751,1.312,2.47,2.484l-2.934,2.602
		c-0.333-0.526-0.729-0.997-1.19-1.412c-0.443-0.397-0.988-0.596-1.633-0.596h-0.083c-0.536,0.028-1.008,0.213-1.419,0.554
		c-0.41,0.341-0.616,0.807-0.616,1.398c0,0.562,0.35,1.086,1.052,1.571c0.701,0.484,1.356,0.888,1.966,1.211
		c1.494,0.803,2.846,1.684,4.055,2.644c1.181,0.941,1.771,2.344,1.771,4.208v0.083c-0.018,1.836-0.671,3.313-1.958,4.429
		c-1.287,1.117-2.89,1.735-4.809,1.854c-0.139,0.009-0.282,0.014-0.429,0.014c-1.273,0-2.482-0.337-3.626-1.011
		c-1.282-0.747-2.214-1.841-2.795-3.28L190.653,62.772z"/>
	<path fill="#F16421" d="M214.58,52.336v16.927h-4.333V52.336h-5.231l0.872-3.862h13.024l0.872,3.862H214.58z"/>
	<path fill="#F16421" d="M228.845,61.14v8.124h-4.139V48.475h5.038c0.728,0,1.465,0.037,2.208,0.111
		c0.742,0.074,1.432,0.254,2.069,0.54c1.577,0.729,2.561,2.04,2.947,3.931c0.102,0.517,0.153,1.024,0.153,1.522
		c0,0.738-0.111,1.453-0.333,2.145c-0.554,1.818-1.805,2.958-3.751,3.419c0.748,0.12,1.377,0.503,1.889,1.149
		c0.512,0.646,1.008,1.418,1.488,2.318c0.48,0.899,0.987,1.854,1.523,2.865c0.535,1.01,1.204,1.94,2.007,2.789h-4.941
		c-0.627-0.582-1.14-1.289-1.536-2.125c-0.396-0.835-0.796-1.659-1.198-2.471c-0.401-0.812-0.86-1.545-1.377-2.201
		S229.693,61.37,228.845,61.14z M229.052,56.849c0.471,0,1.02-0.028,1.647-0.083c0.627-0.055,1.088-0.189,1.384-0.401
		c0.405-0.286,0.608-0.831,0.608-1.633c0-0.452-0.064-0.844-0.193-1.177c-0.213-0.526-0.72-0.872-1.523-1.038
		c-0.471-0.102-1.112-0.152-1.924-0.152V56.849z"/>
	<path fill="#F16421" d="M246.75,59.866l-7.086-11.391h4.706l0.166,0.277l4.125,6.658l0.305,0.554l0.388-0.651l4.387-6.837h4.54
		l-7.225,11.391v9.398h-4.305V59.866z"/>
</g>
</svg>
